<svg height="511pt" viewBox="-53 1 511 511.99998" width="511pt" xmlns="http://www.w3.org/2000/svg">
<path fill="white" d="m363.816406 191.519531h-13.203125v-44.261719c0-81.199218-66.0625-147.257812-147.261719-147.257812-81.199218 0-147.257812 66.058594-147.257812 147.257812v44.261719h-13.203125c-23.375 0-42.390625 19.015625-42.390625 42.390625v235.703125c0 23.371094 19.015625 42.386719 42.390625 42.386719h320.925781c23.371094 0 42.386719-19.015625 42.386719-42.386719v-235.703125c0-23.375-19.015625-42.390625-42.386719-42.390625zm-277.328125-44.261719c0-64.4375 52.425781-116.863281 116.863281-116.863281 64.441407 0 116.863282 52.425781 116.863282 116.863281v44.261719h-57.644532v-45.410156c0-32.019531-26.050781-58.066406-58.070312-58.066406h-2.296875c-32.019531 0-58.070313 26.046875-58.070313 58.066406v45.410156h-57.644531zm88.039063 44.261719v-45.410156c0-15.257813 12.414062-27.671875 27.675781-27.671875h2.296875c15.261719 0 27.675781 12.414062 27.675781 27.671875v45.410156zm201.28125 278.09375c0 6.609375-5.382813 11.992188-11.996094 11.992188h-320.921875c-6.613281 0-11.996094-5.382813-11.996094-11.992188v-235.703125c0-6.613281 5.382813-11.992187 11.996094-11.992187h320.925781c6.613282 0 11.992188 5.378906 11.992188 11.992187zm0 0"/>
<path fill="white" d="m203.351562 272.296875c-31.089843 0-56.382812 25.292969-56.382812 56.382813 0 25.824218 17.457031 47.632812 41.1875 54.285156v33.058594c0 8.394531 6.804688 15.199218 15.195312 15.199218 8.394532 0 15.199219-6.804687 15.199219-15.199218v-33.058594c23.726563-6.652344 41.183594-28.460938 41.183594-54.285156 0-31.085938-25.292969-56.382813-56.382813-56.382813zm0 82.371094c-14.328124 0-25.984374-11.65625-25.984374-25.984375 0-14.332032 11.65625-25.988282 25.984374-25.988282 14.332032 0 25.988282 11.65625 25.988282 25.988282-.003906 14.324218-11.660156 25.984375-25.988282 25.984375zm0 0"/>
</svg>
